<svg xmlns="http://www.w3.org/2000/svg" data-name="Layer 1" viewBox="0 0 24 24"><circle cx="12" cy="3" r="1" fill="#6563ff"/><circle cx="12" cy="21" r="1" fill="#6563ff"/><path fill="#6563ff" d="M16 18.928a1 1 0 1 0 1.366.366A1 1 0 0 0 16 18.928zm4.294-3.294A1 1 0 1 0 20.66 17a1 1 0 0 0-.366-1.366z"/><circle cx="3" cy="12" r="1" fill="#6563ff"/><circle cx="21" cy="12" r="1" fill="#6563ff"/><path fill="#6563ff" d="M3.706 15.634A1 1 0 1 0 5.072 16a1 1 0 0 0-1.366-.366zm16.588-7.268A1 1 0 1 0 18.928 8a1 1 0 0 0 1.366.366zM8 18.928a1 1 0 1 0 .366 1.366A1 1 0 0 0 8 18.928z"/><circle cx="16.5" cy="4.205" r="1" fill="#6563ff" transform="rotate(-15 16.5 4.205)"/><path fill="#6563ff" d="M4.706 6.634A1 1 0 1 0 5.072 8a1 1 0 0 0-.366-1.366Z"/></svg>